<svg width="44" height="44" fill="none" xmlns="http://www.w3.org/2000/svg"><g opacity=".8" fill="#AE1332"><path d="M33.128 17.412a8.099 8.099 0 00-.522-2.752 5.73 5.73 0 00-3.275-3.27 8.23 8.23 0 00-2.719-.522c-1.196-.053-1.576-.068-4.613-.068-3.038 0-3.427 0-4.615.068a8.23 8.23 0 00-2.718.522 5.726 5.726 0 00-3.275 3.27 8.126 8.126 0 00-.521 2.713c-.054 1.196-.07 1.575-.07 4.607 0 3.033 0 3.42.07 4.607.018.93.194 1.846.52 2.716a5.73 5.73 0 003.277 3.269 8.2 8.2 0 002.718.558c1.198.054 1.577.07 4.615.07 3.037 0 3.427 0 4.615-.07a8.208 8.208 0 002.719-.52 5.736 5.736 0 003.275-3.27 8.173 8.173 0 00.521-2.715c.054-1.195.07-1.574.07-4.608-.003-3.032-.003-3.417-.072-4.605zM21.99 27.715a5.744 5.744 0 01-5.75-5.741 5.745 5.745 0 015.75-5.741c3.175 0 5.75 2.57 5.75 5.741a5.746 5.746 0 01-5.75 5.74zm5.98-10.356a1.338 1.338 0 110-2.677 1.339 1.339 0 110 2.677z"/><path d="M21.993 25.479a3.503 3.503 0 100-7.007 3.503 3.503 0 000 7.007z"/></g><rect x=".5" y=".5" width="43" height="43" rx="9.5" stroke="#AE1332"/></svg>