<svg width="156" height="18" fill="none" xmlns="http://www.w3.org/2000/svg"><path d="M14.541 1.157h-2.005a1.11 1.11 0 00-1.12 1.098v1.964a1.11 1.11 0 001.12 1.098h2.005a1.11 1.11 0 001.12-1.098V2.255a1.11 1.11 0 00-1.12-1.098zM3.365 12.52H1.206C.54 12.52 0 13.012 0 13.618v1.964c0 .607.54 1.098 1.206 1.098h2.16c.665 0 1.205-.491 1.205-1.098v-1.964c0-.607-.54-1.098-1.206-1.098zm-.24-5.73H1.12A1.11 1.11 0 000 7.89v1.964a1.11 1.11 0 001.12 1.098h2.005a1.11 1.11 0 001.12-1.098V7.89a1.11 1.11 0 00-1.12-1.098zm5.758 5.7H6.878c-.618 0-1.12.49-1.12 1.097v1.964a1.11 1.11 0 001.12 1.098h2.005a1.11 1.11 0 001.12-1.098v-1.964a1.11 1.11 0 00-1.12-1.098zM3.125 1.043H1.12A1.11 1.11 0 000 2.141v1.964a1.11 1.11 0 001.12 1.098h2.005a1.11 1.11 0 001.12-1.098V2.141a1.11 1.11 0 00-1.12-1.098zm5.913 5.806H7.033c-.618 0-1.12.491-1.12 1.097v1.965a1.11 1.11 0 001.12 1.098h2.005a1.11 1.11 0 001.12-1.098V7.946c0-.606-.501-1.097-1.12-1.097zm5.629 5.641h-2.005c-.619 0-1.12.49-1.12 1.097v1.964a1.11 1.11 0 001.12 1.098h2.005a1.11 1.11 0 001.12-1.098v-1.964a1.11 1.11 0 00-1.12-1.098zM8.795 1.112H6.791c-.619 0-1.12.491-1.12 1.098v1.964a1.11 1.11 0 001.12 1.098h2.004a1.11 1.11 0 001.12-1.098V2.21c0-.607-.501-1.098-1.12-1.098zm5.727 5.851h-2.005a1.11 1.11 0 00-1.12 1.098v1.964a1.11 1.11 0 001.12 1.098h2.005a1.11 1.11 0 001.12-1.098V8.061a1.11 1.11 0 00-1.12-1.098zM25.268 14V4.2h6.328v1.442H27.06v2.744h3.668V9.8H27.06V14h-1.792zm7.15 0V4.2h3.599c.784 0 1.428.135 1.932.406.513.261.896.62 1.148 1.078.252.448.378.947.378 1.498 0 .597-.159 1.143-.476 1.638-.308.495-.794.854-1.456 1.078L39.573 14h-2.058l-1.82-3.864H34.21V14h-1.792zm1.793-5.18h1.694c.597 0 1.036-.145 1.316-.434.28-.29.42-.672.42-1.148 0-.467-.14-.84-.42-1.12-.27-.28-.714-.42-1.33-.42h-1.68V8.82zM40.58 14V4.2h6.398v1.442h-4.605V8.33h4.185v1.4h-4.185v2.828h4.605V14H40.58zm10.88.168c-.718 0-1.353-.121-1.904-.364a3.13 3.13 0 01-1.302-1.064c-.317-.467-.48-1.031-.49-1.694h1.89c.019.457.182.845.49 1.162.318.308.752.462 1.302.462.476 0 .854-.112 1.134-.336.28-.233.42-.541.42-.924 0-.401-.126-.714-.378-.938-.242-.224-.569-.406-.98-.546l-1.316-.448c-.756-.261-1.334-.597-1.736-1.008-.392-.41-.588-.957-.588-1.638-.009-.579.126-1.073.406-1.484a2.8 2.8 0 011.176-.966c.495-.233 1.064-.35 1.708-.35.654 0 1.228.117 1.722.35.504.233.896.56 1.176.98.29.42.444.92.462 1.498h-1.918a1.301 1.301 0 00-.406-.91c-.252-.27-.606-.406-1.064-.406-.392-.01-.723.089-.994.294-.261.196-.392.485-.392.868 0 .327.103.588.308.784.206.187.486.345.84.476.355.13.761.27 1.218.42.486.168.929.364 1.33.588.402.224.724.523.966.896.243.364.364.835.364 1.414 0 .513-.13.99-.392 1.428-.261.439-.648.793-1.162 1.064-.513.261-1.143.392-1.89.392zM55.91 14V4.2h1.79v4.074h4.396V4.2h1.792V14h-1.792V9.73H57.7V14h-1.792zm12.1 0V4.2h1.793v4.074h4.395V4.2h1.793V14h-1.792V9.73h-4.396V14H68.01zm8.695 0l3.584-9.8h2.016l3.584 9.8h-1.904l-.784-2.268h-3.822L78.58 14h-1.876zm3.164-3.668h2.842l-1.428-4.074-1.414 4.074zM86.591 14V4.2h3.598c.784 0 1.428.135 1.932.406.513.261.896.62 1.148 1.078.252.448.378.947.378 1.498 0 .597-.159 1.143-.476 1.638-.308.495-.794.854-1.456 1.078L93.745 14h-2.058l-1.82-3.864h-1.484V14H86.59zm1.792-5.18h1.694c.597 0 1.036-.145 1.316-.434.28-.29.42-.672.42-1.148 0-.467-.14-.84-.42-1.12-.271-.28-.714-.42-1.33-.42h-1.68V8.82zm8.87 5.18L93.67 4.2h1.919l2.772 7.966 2.786-7.966h1.89L99.451 14h-2.197zm6.388 0V4.2h6.398v1.442h-4.606V8.33h4.186v1.4h-4.186v2.828h4.606V14h-6.398zm10.879.168c-.718 0-1.353-.121-1.904-.364a3.138 3.138 0 01-1.302-1.064c-.317-.467-.48-1.031-.49-1.694h1.89c.019.457.182.845.49 1.162.318.308.752.462 1.302.462.476 0 .854-.112 1.134-.336.28-.233.42-.541.42-.924 0-.401-.126-.714-.378-.938-.242-.224-.569-.406-.98-.546l-1.316-.448c-.756-.261-1.334-.597-1.736-1.008-.392-.41-.588-.957-.588-1.638-.009-.579.126-1.073.406-1.484a2.8 2.8 0 011.176-.966c.495-.233 1.064-.35 1.708-.35.654 0 1.228.117 1.722.35.504.233.896.56 1.176.98.29.42.444.92.462 1.498h-1.918a1.297 1.297 0 00-.406-.91c-.252-.27-.606-.406-1.064-.406-.392-.01-.723.089-.994.294-.261.196-.392.485-.392.868 0 .327.103.588.308.784.206.187.486.345.84.476.355.13.761.27 1.218.42.486.168.929.364 1.33.588.402.224.724.523.966.896.243.364.364.835.364 1.414 0 .513-.13.99-.392 1.428-.261.439-.648.793-1.162 1.064-.513.261-1.143.392-1.89.392zm6.607-.168V5.642h-2.856V4.2h7.518v1.442h-2.87V14h-1.792zm8.205 0V4.2h3.934c1.018 0 1.792.238 2.324.714.542.467.812 1.069.812 1.806 0 .616-.168 1.11-.504 1.484a2.456 2.456 0 01-1.204.742c.56.112 1.022.392 1.386.84.364.439.546.952.546 1.54 0 .775-.28 1.414-.84 1.918-.56.504-1.353.756-2.38.756h-4.074zm1.792-5.684H133c.504 0 .892-.117 1.162-.35.271-.233.406-.565.406-.994 0-.41-.135-.733-.406-.966-.261-.243-.658-.364-1.19-.364h-1.848v2.674zm0 4.228h2.002c.532 0 .943-.121 1.232-.364.299-.252.448-.602.448-1.05 0-.457-.154-.817-.462-1.078-.308-.261-.723-.392-1.246-.392h-1.974v2.884zm11.072 1.624c-.98 0-1.838-.215-2.576-.644a4.637 4.637 0 01-1.722-1.778c-.41-.765-.616-1.647-.616-2.646 0-.999.206-1.876.616-2.632a4.611 4.611 0 011.722-1.792c.738-.43 1.596-.644 2.576-.644.971 0 1.825.215 2.562.644a4.475 4.475 0 011.722 1.792c.411.756.616 1.633.616 2.632 0 .999-.205 1.88-.616 2.646a4.499 4.499 0 01-1.722 1.778c-.737.43-1.591.644-2.562.644zm0-1.61c.934 0 1.676-.308 2.226-.924.56-.616.84-1.46.84-2.534 0-1.073-.28-1.918-.84-2.534-.55-.616-1.292-.924-2.226-.924-.933 0-1.68.308-2.24.924-.56.616-.84 1.46-.84 2.534 0 1.073.28 1.918.84 2.534.56.616 1.307.924 2.24.924zM146.932 14l3.066-4.956L146.89 4.2h2.058l2.198 3.416 2.016-3.416h2.016l-3.066 4.928L155.248 14h-2.058l-2.226-3.458L148.948 14h-2.016z" fill="#AE1332"/></svg>