<svg width="44" height="44" fill="none" xmlns="http://www.w3.org/2000/svg"><path fill-rule="evenodd" clip-rule="evenodd" d="M29.21 13.25c-1.19-.07-3.64-.14-7.35-.14h-.49c-3.57 0-5.95.07-7.14.21-1.61.14-2.73.56-3.36 1.12-.56.49-.98 1.4-1.12 2.59-.07.77-.14 2.38-.14 4.83v.35c0 2.31.07 3.92.21 4.69.21 1.12.56 1.96 1.26 2.45.7.56 1.89.91 3.57 1.05 1.19.07 3.64.14 7.35.14h.49c3.57 0 5.95-.07 7.14-.21 1.61-.14 2.73-.56 3.36-1.12.56-.49.98-1.4 1.12-2.59.07-.77.14-2.38.14-4.83v-.35c0-2.31-.07-3.92-.21-4.69-.21-1.12-.56-1.96-1.26-2.45-.7-.56-1.89-.91-3.57-1.05zm-2.73 8.61l-7.7 4.62v-9.24l7.7 4.62z" fill="#AE1332" opacity=".8"/><rect x=".5" y=".5" width="43" height="43" rx="9.5" stroke="#AE1332"/></svg>